<?xml version="1.0" standalone="no"?>
<!DOCTYPE svg PUBLIC "-//W3C//DTD SVG 20010904//EN"
 "http://www.w3.org/TR/2001/REC-SVG-20010904/DTD/svg10.dtd">
<svg version="1.0" xmlns="http://www.w3.org/2000/svg"
 width="500.000000pt" height="500.000000pt" viewBox="0 0 500.000000 500.000000"
 preserveAspectRatio="xMidYMid meet">
<metadata>
Created by potrace 1.14, written by Peter Selinger 2001-2017
</metadata>
<g transform="translate(0.000000,500.000000) scale(0.100000,-0.100000)"
fill="#000000" stroke="none">
<path d="M0 2500 l0 -2500 2500 0 2500 0 0 2500 0 2500 -2500 0 -2500 0 0
-2500z m2124 1955 c-4 -8 -10 -15 -14 -15 -4 0 -10 7 -14 15 -4 10 1 15 14 15
13 0 18 -5 14 -15z m-287 -147 c-3 -8 -6 -5 -6 6 -1 11 2 17 5 13 3 -3 4 -12
1 -19z m103 18 c0 -9 -30 -14 -35 -6 -4 6 3 10 14 10 12 0 21 -2 21 -4z m-190
-72 c0 -8 -5 -12 -10 -9 -6 4 -8 11 -5 16 9 14 15 11 15 -7z m250 -4 c0 -5 -2
-10 -4 -10 -3 0 -8 5 -11 10 -3 6 -1 10 4 10 6 0 11 -4 11 -10z m1390 0 c0 -5
-2 -10 -4 -10 -3 0 -8 5 -11 10 -3 6 -1 10 4 10 6 0 11 -4 11 -10z m-1505 -10
c-3 -5 -10 -10 -16 -10 -5 0 -9 5 -9 10 0 6 7 10 16 10 8 0 12 -4 9 -10z m935
6 c0 -3 -4 -8 -10 -11 -5 -3 -10 -1 -10 4 0 6 5 11 10 11 6 0 10 -2 10 -4z
m-1019 -33 c-12 -20 -14 -14 -5 12 4 9 9 14 11 11 3 -2 0 -13 -6 -23z m-277 2
c-6 -16 -24 -21 -24 -7 0 11 11 22 21 22 5 0 6 -7 3 -15z m-94 -15 c0 -5 -5
-10 -11 -10 -5 0 -7 5 -4 10 3 6 8 10 11 10 2 0 4 -4 4 -10z m880 0 c0 -5 -5
-10 -11 -10 -5 0 -7 5 -4 10 3 6 8 10 11 10 2 0 4 -4 4 -10z m1050 -16 c0 -8
-19 -13 -24 -6 -3 5 1 9 9 9 8 0 15 -2 15 -3z m-635 -14 c3 -5 2 -10 -4 -10
-5 0 -13 5 -16 10 -3 6 -2 10 4 10 5 0 13 -4 16 -10z m-635 -14 c0 -2 -7 -7
-16 -10 -8 -3 -12 -2 -9 4 6 10 25 14 25 6z m-820 -57 c0 -6 -4 -7 -10 -4 -5
3 -10 11 -10 16 0 6 5 7 10 4 6 -3 10 -11 10 -16z m580 -4 c0 -7 -6 -15 -13
-18 -11 -4 -15 15 -8 41 3 9 21 -11 21 -23z m-80 11 c0 -3 -4 -8 -10 -11 -5
-3 -10 -1 -10 4 0 6 5 11 10 11 6 0 10 -2 10 -4z m1250 -50 c-12 -13 -29 2
-27 24 1 18 2 18 18 2 9 -9 13 -21 9 -26z m25 26 c-3 -3 -11 0 -18 7 -9 10 -8
11 6 5 10 -3 15 -9 12 -12z m-1235 -2 c0 -5 -2 -10 -4 -10 -3 0 -8 5 -11 10
-3 6 -1 10 4 10 6 0 11 -4 11 -10z m960 6 c0 -3 -4 -8 -10 -11 -5 -3 -10 -1
-10 4 0 6 5 11 10 11 6 0 10 -2 10 -4z m-390 -16 c0 -5 -8 -10 -17 -10 -15 0
-16 2 -3 10 19 12 20 12 20 0z m570 -5 c0 -8 -4 -15 -10 -15 -5 0 -7 7 -4 15
4 8 8 15 10 15 2 0 4 -7 4 -15z m357 0 c0 -8 -4 -12 -9 -9 -4 3 -8 9 -8 15 0
5 4 9 8 9 5 0 9 -7 9 -15z m-1537 -15 c-6 -11 -13 -20 -16 -20 -2 0 0 9 6 20
6 11 13 20 16 20 2 0 0 -9 -6 -20z m533 -6 c1 -4 -6 -8 -15 -10 -14 -2 -15 1
-5 17 11 17 14 16 20 -7z m827 11 c0 -8 -7 -15 -15 -15 -8 0 -15 7 -15 15 0 8
7 15 15 15 8 0 15 -7 15 -15z m-666 -38 c7 -6 6 -7 -4 -4 -8 2 -16 12 -17 23
-2 13 -1 15 4 4 3 -8 11 -19 17 -23z m386 18 c-7 -8 -17 -15 -23 -15 -6 0 -2
7 9 15 25 19 30 19 14 0z m312 -7 c-7 -7 -12 -8 -12 -2 0 6 3 14 7 17 3 4 9 5
12 2 2 -3 -1 -11 -7 -17z m-1117 1 c11 -17 -1 -21 -15 -4 -8 9 -8 15 -2 15 6
0 14 -5 17 -11z m543 -14 c-3 -3 -9 2 -12 12 -6 14 -5 15 5 6 7 -7 10 -15 7
-18z m472 11 c0 -3 -4 -8 -10 -11 -5 -3 -10 -1 -10 4 0 6 5 11 10 11 6 0 10
-2 10 -4z m-1462 -23 c-2 -9 -10 -17 -19 -18 -12 -2 -15 3 -12 16 6 23 36 26
31 2z m102 11 c0 -8 -19 -13 -24 -6 -3 5 1 9 9 9 8 0 15 -2 15 -3z m1260 -4
c0 -5 -5 -10 -11 -10 -5 0 -7 5 -4 10 3 6 8 10 11 10 2 0 4 -4 4 -10z m-1337
-31 c-8 -8 -13 -8 -17 0 -4 6 -2 11 4 11 6 0 8 6 4 13 -6 10 -4 10 7 0 9 -10
10 -16 2 -24z m347 16 c10 -12 10 -15 -4 -15 -9 0 -16 7 -16 15 0 8 2 15 4 15
2 0 9 -7 16 -15z m-815 -5 c-3 -5 -10 -10 -16 -10 -5 0 -9 5 -9 10 0 6 7 10
16 10 8 0 12 -4 9 -10z m510 0 c-3 -5 -11 -10 -16 -10 -6 0 -7 5 -4 10 3 6 11
10 16 10 6 0 7 -4 4 -10z m245 -11 c0 -5 -4 -9 -8 -9 -5 0 -9 7 -9 15 0 8 4
12 9 9 4 -3 8 -9 8 -15z m166 -3 c10 -8 16 -17 12 -21 -3 -4 -16 3 -27 14 -24
24 -15 28 15 7z m-31 -16 c2 -4 -7 -5 -20 -2 -14 2 -25 8 -25 12 0 10 38 1 45
-10z m1055 11 c0 -12 -20 -25 -27 -18 -7 7 6 27 18 27 5 0 9 -4 9 -9z m87 -13
c2 -18 0 -20 -7 -8 -12 18 -13 30 -2 30 4 0 9 -10 9 -22z m283 6 c0 -8 -5 -12
-10 -9 -6 4 -8 11 -5 16 9 14 15 11 15 -7z m-1776 -3 c3 -5 -6 -8 -19 -8 -14
0 -25 3 -25 8 0 5 9 9 19 9 11 0 22 -4 25 -9z m246 1 c0 -5 -7 -9 -15 -9 -8 0
-12 4 -9 9 3 4 9 8 15 8 5 0 9 -4 9 -8z m1055 -11 c-8 -15 -32 -14 -41 1 -5 8
-2 9 9 5 9 -3 19 -2 23 4 3 6 8 8 11 5 3 -2 2 -9 -2 -15z m-1393 -13 c-7 -7
-12 -8 -12 -2 0 14 12 26 19 19 2 -3 -1 -11 -7 -17z m253 -5 c-2 -16 -4 -30
-5 -33 0 -3 -6 4 -12 14 -8 15 -8 21 0 24 7 2 10 8 6 13 -3 5 -1 9 5 9 5 0 8
-12 6 -27z m1453 18 c6 -1 12 -6 12 -12 0 -5 -4 -8 -9 -4 -5 3 -12 1 -16 -5
-3 -5 -13 -10 -21 -10 -8 0 -12 5 -9 10 3 6 1 10 -5 10 -6 0 -9 4 -6 9 4 5 14
8 24 6 9 -2 23 -4 30 -4z m-1808 -21 c0 -5 -5 -10 -11 -10 -5 0 -7 5 -4 10 3
6 8 10 11 10 2 0 4 -4 4 -10z m420 -16 c0 -8 -7 -14 -15 -14 -8 0 -15 -4 -15
-10 0 -5 -7 -10 -15 -10 -21 0 -19 12 6 38 21 23 39 21 39 -4z m1310 -1 c0
-12 -2 -12 -15 1 -8 8 -15 17 -15 20 0 3 7 3 15 0 8 -4 15 -13 15 -21z m250
-25 c0 -6 -7 -5 -15 2 -8 7 -15 17 -15 22 0 6 7 5 15 -2 8 -7 15 -17 15 -22z
m-1980 12 c0 -5 -4 -10 -10 -10 -5 0 -10 5 -10 10 0 6 5 10 10 10 6 0 10 -4
10 -10z m2327 -17 c-3 -3 -11 -2 -17 2 -9 6 -9 10 1 16 14 8 27 -7 16 -18z
m-2117 7 c0 -11 0 -11 -55 -14 l-40 -3 30 13 c36 16 65 18 65 4z m120 1 c0
-11 -31 -24 -39 -16 -3 3 1 10 9 15 19 12 30 12 30 1z m1610 -6 c7 -9 8 -15 2
-15 -5 0 -12 7 -16 15 -3 8 -4 15 -2 15 2 0 9 -7 16 -15z m-57 -15 c-5 -20
-33 -29 -33 -10 0 7 25 27 37 30 0 0 -1 -9 -4 -20z m192 10 c3 -5 1 -10 -4
-10 -6 0 -11 5 -11 10 0 6 2 10 4 10 3 0 8 -4 11 -10z m-2018 -21 c1 -12 1
-20 0 -18 -2 2 -9 12 -16 22 -11 14 -11 17 1 17 7 0 14 -10 15 -21z m2063 11
c0 -5 -2 -10 -4 -10 -3 0 -8 5 -11 10 -3 6 -1 10 4 10 6 0 11 -4 11 -10z
m-2270 -26 c0 -8 -5 -12 -10 -9 -6 4 -8 11 -5 16 9 14 15 11 15 -7z m270 6 c0
-5 -4 -10 -10 -10 -5 0 -10 5 -10 10 0 6 5 10 10 10 6 0 10 -4 10 -10z m1677
-22 c-6 -4 -15 -2 -18 4 -4 6 -15 8 -24 4 -15 -5 -16 -4 -6 8 9 11 17 11 36 3
15 -8 19 -14 12 -19z m283 12 c0 -5 -4 -10 -10 -10 -5 0 -10 5 -10 10 0 6 5
10 10 10 6 0 10 -4 10 -10z m-2387 -14 c4 -10 1 -13 -9 -9 -15 6 -19 23 -5 23
5 0 11 -7 14 -14z m597 4 c0 -5 -2 -10 -4 -10 -3 0 -8 5 -11 10 -3 6 -1 10 4
10 6 0 11 -4 11 -10z m-237 -29 c3 -14 0 -17 -14 -14 -22 6 -25 19 -6 26 6 3
13 6 13 6 1 1 4 -7 7 -18z m2107 -2 c0 -5 -4 -9 -8 -9 -5 0 -9 7 -9 15 0 8 4
12 9 9 4 -3 8 -9 8 -15z m130 -29 c-8 -5 -17 -6 -20 -3 -3 3 1 8 8 10 6 3 9
10 6 16 -4 7 -1 7 7 -1 12 -11 12 -14 -1 -22z m-2241 -27 c2 -2 -3 -3 -11 -3
-9 0 -19 7 -22 16 -6 15 -4 15 11 3 10 -7 20 -15 22 -16z m108 5 c-3 -8 -6 -5
-6 6 -1 11 2 17 5 13 3 -3 4 -12 1 -19z m788 -8 c0 -16 -4 -30 -10 -30 -5 0
-10 14 -10 30 0 17 5 30 10 30 6 0 10 -13 10 -30z m149 22 c3 -5 -5 -8 -17 -8
-27 1 -30 -27 -3 -32 11 -3 16 0 12 7 -4 6 0 11 8 11 10 0 13 -6 10 -15 -4 -8
-14 -15 -24 -15 -28 0 -45 27 -30 45 14 16 36 20 44 7z m771 -2 c3 -5 1 -10
-4 -10 -6 0 -11 5 -11 10 0 6 2 10 4 10 3 0 8 -4 11 -10z m-1885 -8 c0 -4 -9
-8 -20 -9 -11 -1 -18 2 -15 8 7 11 35 12 35 1z m2100 -7 c0 -8 -2 -15 -4 -15
-2 0 -6 7 -10 15 -3 8 -1 15 4 15 6 0 10 -7 10 -15z m-2270 -15 c0 -5 -7 -7
-15 -4 -8 4 -12 10 -9 15 6 11 24 2 24 -11z m289 -9 c-15 -5 -22 6 -14 19 6 9
10 9 16 -1 5 -8 4 -15 -2 -18z m701 19 c-12 -8 -12 -10 5 -11 11 0 14 -3 8 -6
-7 -2 -13 -9 -13 -15 0 -6 7 -7 16 -4 8 3 12 2 9 -4 -7 -12 -35 -14 -35 -2 0
4 -3 17 -6 30 -5 17 -2 22 12 22 16 0 17 -2 4 -10z m441 -8 c6 9 9 6 9 -10 0
-20 -2 -21 -20 -10 -17 11 -22 10 -30 -2 -11 -17 -13 -1 -4 24 5 14 7 14 21 0
13 -13 17 -13 24 -2z m1143 -12 c-6 -6 -10 -2 -11 12 -2 16 1 18 10 9 7 -7 8
-14 1 -21z m-154 10 c0 -5 -4 -10 -10 -10 -5 0 -10 5 -10 10 0 6 5 10 10 10 6
0 10 -4 10 -10z m30 -10 c0 -5 -2 -10 -4 -10 -3 0 -8 5 -11 10 -3 6 -1 10 4
10 6 0 11 -4 11 -10z m-2290 -9 c0 -6 -4 -13 -10 -16 -5 -3 -10 1 -10 9 0 9 5
16 10 16 6 0 10 -4 10 -9z m2130 -21 c0 -16 -4 -30 -9 -30 -8 0 -9 43 -2 58 5
11 11 -3 11 -28z m-2027 13 c-7 -2 -13 -12 -13 -20 0 -19 -13 -9 -16 12 -1 10
6 15 19 14 12 0 16 -3 10 -6z m614 -27 c16 5 16 4 -1 -6 -20 -13 -36 0 -35 30
0 8 4 5 9 -7 6 -16 15 -21 27 -17z m1313 24 c0 -5 -7 -10 -15 -10 -8 0 -15 5
-15 10 0 6 7 10 15 10 8 0 15 -4 15 -10z m490 6 c0 -3 -4 -8 -10 -11 -5 -3
-10 -1 -10 4 0 6 5 11 10 11 6 0 10 -2 10 -4z m-340 -21 c0 -8 -4 -15 -10 -15
-5 0 -7 7 -4 15 4 8 8 15 10 15 2 0 4 -7 4 -15z m-2600 -5 c0 -5 -5 -10 -11
-10 -5 0 -7 5 -4 10 3 6 8 10 11 10 2 0 4 -4 4 -10z m1914 -26 c7 -25 8 -26
21 -8 13 18 14 18 8 -4 -8 -34 -22 -36 -34 -5 -10 26 -12 27 -19 8 -10 -23
-13 -5 -4 19 9 24 21 19 28 -10z m-1949 6 c-3 -5 -12 -10 -18 -10 -7 0 -6 4 3
10 19 12 23 12 15 0z m417 -12 c-7 -7 -12 -8 -12 -2 0 14 12 26 19 19 2 -3 -1
-11 -7 -17z m633 2 c18 -19 17 -20 -3 -20 -11 0 -23 -6 -25 -12 -3 -7 -6 2 -6
20 -1 37 8 40 34 12z m1485 5 c-14 -17 -30 -20 -30 -4 0 5 4 8 9 4 5 -3 12 -1
16 5 3 5 9 10 12 10 3 0 0 -7 -7 -15z m160 5 c0 -5 -2 -10 -4 -10 -3 0 -8 5
-11 10 -3 6 -1 10 4 10 6 0 11 -4 11 -10z m270 6 c0 -3 -4 -8 -10 -11 -5 -3
-10 -1 -10 4 0 6 5 11 10 11 6 0 10 -2 10 -4z m-2605 -16 c-3 -5 -11 -10 -16
-10 -6 0 -7 5 -4 10 3 6 11 10 16 10 6 0 7 -4 4 -10z m101 -48 c-12 -11 -18 7
-10 30 l8 23 4 -23 c2 -13 1 -26 -2 -30z m2394 18 c0 -5 -5 -10 -11 -10 -5 0
-7 5 -4 10 3 6 8 10 11 10 2 0 4 -4 4 -10z m-1934 -34 c10 -21 9 -23 -9 -18
-17 4 -19 2 -14 -14 6 -15 2 -13 -14 6 -19 23 -20 25 -3 37 24 17 27 17 40
-11z m2411 18 c-3 -3 -12 -4 -19 -1 -8 3 -5 6 6 6 11 1 17 -2 13 -5z m-3047
-23 c0 -26 -19 -37 -33 -21 -9 10 -9 11 1 6 8 -5 12 0 12 13 0 12 5 21 10 21
6 0 10 -9 10 -19z m1790 15 c0 -3 -4 -8 -10 -11 -5 -3 -10 -1 -10 4 0 6 5 11
10 11 6 0 10 -2 10 -4z m35 -6 c3 -6 -1 -7 -9 -4 -18 7 -21 14 -7 14 6 0 13
-4 16 -10z m575 0 c0 -5 -5 -10 -11 -10 -5 0 -7 5 -4 10 3 6 8 10 11 10 2 0 4
-4 4 -10z m124 -15 c11 -8 15 -15 9 -15 -19 0 -43 12 -43 21 0 13 12 11 34 -6z
m-734 -20 c11 -13 10 -14 -4 -9 -9 3 -16 10 -16 15 0 13 6 11 20 -6z m690 5
c0 -5 -4 -10 -10 -10 -5 0 -10 5 -10 10 0 6 5 10 10 10 6 0 10 -4 10 -10z
m-2460 -4 c0 -3 -4 -8 -10 -11 -5 -3 -10 -1 -10 4 0 6 5 11 10 11 6 0 10 -2
10 -4z m37 -21 c13 -29 -1 -34 -17 -6 -12 23 -13 31 -2 31 4 0 12 -11 19 -25z
m-82 -15 c3 -5 -1 -10 -9 -10 -9 0 -16 5 -16 10 0 6 4 10 9 10 6 0 13 -4 16
-10z m125 6 c0 -3 -4 -8 -10 -11 -5 -3 -10 -1 -10 4 0 6 5 11 10 11 6 0 10 -2
10 -4z m2807 -31 c0 -8 -4 -15 -9 -15 -4 0 -8 7 -8 15 0 8 4 15 8 15 5 0 9 -7
9 -15z m-517 -5 c0 -5 -5 -10 -11 -10 -5 0 -7 5 -4 10 3 6 8 10 11 10 2 0 4
-4 4 -10z m357 4 c-3 -3 -12 -4 -19 -1 -8 3 -5 6 6 6 11 1 17 -2 13 -5z m393
-20 c0 -2 -7 -4 -15 -4 -8 0 -15 4 -15 10 0 5 7 7 15 4 8 -4 15 -8 15 -10z
m-3154 -43 c-10 -16 -36 -13 -36 3 0 17 21 27 34 16 4 -5 5 -13 2 -19z m2724
19 c0 -5 -5 -10 -11 -10 -5 0 -7 5 -4 10 3 6 8 10 11 10 2 0 4 -4 4 -10z
m-240 -9 c0 -6 -4 -12 -8 -15 -5 -3 -9 1 -9 9 0 8 4 15 9 15 4 0 8 -4 8 -9z
m-2500 -41 c0 -5 -2 -10 -4 -10 -3 0 -8 5 -11 10 -3 6 -1 10 4 10 6 0 11 -4
11 -10z m2710 -4 c0 -3 -4 -8 -10 -11 -5 -3 -10 -1 -10 4 0 6 5 11 10 11 6 0
10 -2 10 -4z m-2761 -45 c-15 -5 -22 6 -14 19 6 9 10 9 16 -1 5 -8 4 -15 -2
-18z m2886 19 c-3 -5 -12 -10 -18 -10 -7 0 -6 4 3 10 19 12 23 12 15 0z m75
-10 c0 -5 -5 -10 -11 -10 -5 0 -7 5 -4 10 3 6 8 10 11 10 2 0 4 -4 4 -10z
m-85 -20 c3 -5 2 -10 -4 -10 -5 0 -13 5 -16 10 -3 6 -2 10 4 10 5 0 13 -4 16
-10z m53 -25 c-1 -21 -6 -35 -14 -35 -8 0 -11 6 -8 15 5 11 2 13 -10 9 -9 -3
-16 -11 -16 -17 0 -6 -3 -8 -6 -5 -9 10 26 68 41 68 10 0 14 -11 13 -35z
m-3023 6 c-3 -11 -1 -22 5 -26 16 -10 12 -22 -11 -28 -12 -3 -18 -10 -14 -16
3 -6 1 -11 -4 -11 -13 0 -14 13 -3 24 8 8 9 14 11 51 0 14 6 25 12 25 6 0 8
-8 4 -19z m2755 4 c0 -8 -2 -15 -4 -15 -2 0 -6 7 -10 15 -3 8 -1 15 4 15 6 0
10 -7 10 -15z m400 -6 c0 -6 -4 -7 -10 -4 -5 3 -10 11 -10 16 0 6 5 7 10 4 6
-3 10 -11 10 -16z m-267 -3 c4 -10 1 -13 -8 -9 -8 3 -12 9 -9 14 7 12 11 11
17 -5z m-2814 -23 c-10 -11 -14 -11 -20 -1 -14 21 -10 26 11 21 16 -4 18 -8 9
-20z m2706 -11 c-3 -3 -11 0 -18 7 -9 10 -8 11 6 5 10 -3 15 -9 12 -12z m-75
-2 c0 -5 -2 -10 -4 -10 -3 0 -8 5 -11 10 -3 6 -1 10 4 10 6 0 11 -4 11 -10z
m195 -9 c-3 -6 -11 -8 -17 -5 -6 4 -5 9 3 15 16 10 23 4 14 -10z m-2841 -26
c3 -8 1 -15 -4 -15 -6 0 -10 7 -10 15 0 8 2 15 4 15 2 0 6 -7 10 -15z m3063
-17 c-3 -7 -5 -2 -5 12 0 14 2 19 5 13 2 -7 2 -19 0 -25z m-191 -4 c-9 -9 -20
-14 -23 -10 -4 3 2 13 13 20 25 18 31 12 10 -10z m-130 -3 c-4 -6 -14 -7 -23
-4 -15 6 -14 7 3 13 22 9 29 6 20 -9z m254 -3 c0 -4 -7 -8 -15 -8 -8 0 -15 4
-15 8 0 5 7 9 15 9 8 0 15 -4 15 -9z m-3195 -8 c3 -5 1 -10 -4 -10 -6 0 -11 5
-11 10 0 6 2 10 4 10 3 0 8 -4 11 -10z m2914 -14 c15 -8 20 -16 13 -20 -12 -7
-52 13 -52 26 0 11 11 9 39 -6z m151 -16 c0 -5 -2 -10 -4 -10 -3 0 -8 5 -11
10 -3 6 -1 10 4 10 6 0 11 -4 11 -10z m-2662 -364 c74 -72 27 -276 -89 -380
-51 -46 -137 -83 -166 -72 -23 9 -33 -11 -33 -70 0 -71 -11 -144 -21 -144 -5
0 -9 53 -9 118 0 78 -4 122 -12 130 -9 9 -9 12 3 12 14 0 17 26 23 166 8 182
0 217 -30 137 -22 -57 -25 -153 -5 -177 8 -10 9 -16 3 -16 -49 0 -37 218 14
261 11 9 17 9 29 -1 12 -10 15 -39 15 -139 l1 -126 28 85 c36 110 63 161 107
204 53 51 97 55 142 12z m1310 11 c53 -43 56 -169 7 -272 -51 -108 -155 -189
-242 -190 l-42 0 -7 -107 c-3 -60 -10 -108 -15 -108 -5 0 -9 54 -9 119 0 77
-4 122 -11 127 -8 4 -7 9 2 15 11 6 15 49 17 180 4 180 -4 204 -33 107 -19
-66 -19 -128 1 -156 13 -19 13 -22 0 -22 -9 0 -20 16 -26 42 -14 50 2 149 31
197 40 66 59 27 59 -121 l1 -113 23 70 c42 129 93 211 148 238 34 17 71 15 96
-6z m-791 -37 c-4 -17 2 -18 69 -13 56 4 74 3 74 -7 0 -7 -7 -10 -16 -6 -9 3
-44 1 -79 -5 l-63 -11 -6 -45 c-3 -25 -6 -117 -6 -204 0 -88 -4 -159 -9 -159
-11 0 -21 60 -21 128 l0 52 -40 -26 c-35 -24 -40 -31 -40 -66 0 -49 -27 -97
-58 -105 -53 -13 -53 42 0 102 l31 36 -28 29 -28 29 -28 -20 c-16 -11 -29 -27
-29 -36 0 -8 -16 -31 -37 -51 -29 -30 -37 -46 -41 -87 -9 -81 -20 -18 -20 110
0 125 7 166 27 173 9 3 12 0 8 -11 -3 -8 -8 -48 -12 -88 l-6 -74 25 53 c25 53
48 65 65 35 8 -15 13 -13 43 20 33 35 58 48 58 28 0 -5 -7 -11 -15 -15 -22 -8
-18 -30 11 -55 l25 -22 47 34 47 33 5 97 c3 53 2 97 -1 97 -17 0 -118 -34
-137 -47 -13 -8 -27 -12 -30 -8 -12 12 32 35 105 57 63 18 73 25 82 50 11 31
36 29 28 -2z m1540 0 c-4 -17 2 -18 69 -13 56 4 74 3 74 -7 0 -7 -7 -10 -16
-6 -9 3 -44 1 -79 -5 l-63 -11 -6 -45 c-3 -25 -6 -117 -6 -204 0 -88 -4 -159
-9 -159 -10 0 -21 59 -21 118 l0 44 -31 -26 c-39 -33 -74 -33 -95 -1 -15 23
-18 24 -37 10 -34 -24 -57 -18 -69 15 l-10 31 -32 -37 c-20 -23 -37 -35 -44
-30 -25 15 -4 126 24 126 16 0 17 -5 5 -28 -14 -28 -22 -72 -13 -72 5 0 21 18
36 40 32 49 46 51 46 5 0 -64 54 -55 90 14 19 37 42 56 54 44 10 -10 7 -35 -3
-28 -14 8 -33 -32 -29 -63 4 -39 38 -40 80 -3 33 29 33 30 38 135 3 58 2 106
-1 106 -17 0 -118 -34 -137 -47 -13 -8 -27 -12 -30 -8 -12 12 32 35 105 57 63
18 73 25 82 50 11 31 36 29 28 -2z m-377 -55 c0 -7 -7 -40 -15 -72 -10 -36
-15 -104 -15 -186 0 -83 -4 -126 -10 -122 -6 3 -10 50 -10 103 l-1 97 -22 -45
c-12 -25 -30 -46 -39 -48 -44 -8 -6 128 40 145 22 8 32 23 32 48 0 33 20 95
30 95 6 0 10 -7 10 -15z m438 -72 c-4 -22 -22 -20 -26 1 -2 10 3 16 13 16 10
0 15 -7 13 -17z m-1500 -81 c2 -7 -2 -10 -12 -6 -21 8 -42 -10 -55 -47 -13
-39 -8 -37 20 9 l22 37 11 -37 c6 -20 14 -40 18 -44 13 -13 56 25 63 56 8 35
25 40 25 7 0 -20 4 -22 43 -19 48 5 42 -14 -8 -20 -25 -2 -31 -9 -40 -41 -11
-38 -25 -41 -25 -5 0 21 -4 22 -31 8 -15 -9 -24 -6 -44 14 l-24 24 -16 -24
c-35 -54 -59 -16 -31 50 21 49 72 73 84 38z m1703 -34 c-13 -36 -8 -49 8 -20
6 11 19 28 28 37 16 16 17 16 24 -1 4 -11 8 -33 8 -51 1 -17 5 -35 11 -38 12
-7 53 39 60 67 6 23 35 46 46 36 3 -4 -1 -14 -10 -23 -22 -22 -20 -28 13 -53
l29 -21 41 30 c22 17 45 29 51 27 6 -2 -11 -19 -37 -38 -40 -30 -47 -40 -48
-71 -2 -48 -35 -103 -64 -107 -49 -7 -49 38 1 101 l30 38 -22 24 -23 24 -19
-24 c-21 -27 -52 -33 -64 -13 -4 7 -10 28 -13 47 l-6 34 -28 -41 c-15 -23 -32
-42 -38 -42 -16 0 -6 95 12 116 18 22 24 2 10 -38z m-2217 11 c10 -53 7 -86
-12 -110 -46 -56 -69 17 -32 99 23 50 35 53 44 11z m1406 14 c7 -76 3 -114
-12 -129 -26 -27 -48 -11 -48 36 0 37 -2 40 -29 40 -29 0 -41 -14 -41 -50 0
-10 -4 -22 -10 -25 -6 -4 -10 20 -10 64 0 41 4 71 10 71 6 0 10 -10 10 -23 0
-20 4 -22 40 -19 28 3 44 11 55 28 18 28 33 31 35 7z m581 -48 c-2 -45 1 -56
15 -62 14 -5 33 10 79 60 l60 66 12 -38 c13 -42 8 -77 -15 -103 -27 -32 -52
-17 -52 32 0 15 -5 14 -29 -11 -35 -35 -64 -37 -85 -7 -18 26 -20 65 -6 104
15 39 24 22 21 -41z m599 -745 c0 -5 -2 -10 -4 -10 -3 0 -8 5 -11 10 -3 6 -1
10 4 10 6 0 11 -4 11 -10z m-2910 -4 c0 -11 -19 -15 -25 -6 -3 5 1 10 9 10 9
0 16 -2 16 -4z m2877 -18 c-3 -8 -6 -5 -6 6 -1 11 2 17 5 13 3 -3 4 -12 1 -19z
m-160 6 c-3 -3 -12 -4 -19 -1 -8 3 -5 6 6 6 11 1 17 -2 13 -5z m310 0 c-3 -3
-12 -4 -19 -1 -8 3 -5 6 6 6 11 1 17 -2 13 -5z m-3297 -38 c0 -3 -4 -8 -10
-11 -5 -3 -10 -1 -10 4 0 6 5 11 10 11 6 0 10 -2 10 -4z m5 -46 c3 -5 1 -10
-4 -10 -6 0 -11 5 -11 10 0 6 2 10 4 10 3 0 8 -4 11 -10z m230 0 c-3 -5 -12
-10 -18 -10 -7 0 -6 4 3 10 19 12 23 12 15 0z m2755 0 c0 -5 -4 -10 -10 -10
-5 0 -10 5 -10 10 0 6 5 10 10 10 6 0 10 -4 10 -10z m390 -36 c0 -8 -5 -12
-10 -9 -6 4 -8 11 -5 16 9 14 15 11 15 -7z m-400 -48 c0 -6 -7 -1 -15 10 -8
10 -15 23 -15 28 0 6 7 1 15 -10 8 -10 15 -23 15 -28z m-2070 -8 c0 -4 -15 -7
-34 -5 -32 2 -33 3 -17 24 15 19 17 20 34 6 9 -9 17 -20 17 -25z m-630 22 c0
-5 -5 -10 -11 -10 -5 0 -7 5 -4 10 3 6 8 10 11 10 2 0 4 -4 4 -10z m2034 -5
c-18 -14 -17 -15 9 -9 24 6 28 4 25 -11 -1 -10 -9 -20 -16 -21 -7 -1 -8 0 -2
3 20 10 9 23 -15 17 -18 -4 -25 -2 -25 8 0 19 9 28 29 28 11 0 10 -3 -5 -15z
m733 -7 c-3 -8 -6 -5 -6 6 -1 11 2 17 5 13 3 -3 4 -12 1 -19z m-24 -11 c4 3 7
1 7 -5 0 -17 -16 -15 -31 6 -12 15 -12 16 2 5 9 -7 19 -10 22 -6z m534 7 c-3
-3 -12 -4 -19 -1 -8 3 -5 6 6 6 11 1 17 -2 13 -5z m-672 -24 c-3 -5 -13 -6
-21 -3 -12 4 -13 8 -3 14 15 9 32 2 24 -11z m425 11 c0 -6 -4 -13 -10 -16 -5
-3 -10 1 -10 9 0 9 5 16 10 16 6 0 10 -4 10 -9z m-3450 -15 c0 -3 -4 -8 -10
-11 -5 -3 -10 -1 -10 4 0 6 5 11 10 11 6 0 10 -2 10 -4z m330 -16 c0 -5 -2
-10 -4 -10 -3 0 -8 5 -11 10 -3 6 -1 10 4 10 6 0 11 -4 11 -10z m796 -27 c-1
-12 6 -18 21 -17 18 0 20 -3 12 -17 -13 -26 -27 -32 -25 -11 1 12 -5 16 -22
15 -22 -3 -22 -2 -6 22 19 30 22 31 20 8z m1254 -26 c0 -5 -4 -6 -9 -3 -17 11
-40 -5 -34 -22 8 -22 -1 -13 -17 17 -6 13 -7 21 -2 17 17 -11 41 4 35 22 -4
13 -2 12 10 -3 9 -11 17 -24 17 -28z m575 3 c-33 -36 -47 -17 -15 22 9 11 18
14 24 8 6 -6 3 -17 -9 -30z m86 19 c11 -11 19 -23 16 -25 -8 -8 -32 6 -45 26
-16 27 2 26 29 -1z m103 -31 c-4 -6 -10 -6 -16 0 -6 6 -17 8 -24 5 -20 -7 -17
7 4 23 14 11 19 11 29 -3 7 -9 10 -20 7 -25z m-2834 -3 c0 -8 -4 -15 -10 -15
-5 0 -7 7 -4 15 4 8 8 15 10 15 2 0 4 -7 4 -15z m296 -12 c-7 -7 -26 7 -26 19
0 6 6 6 15 -2 9 -7 13 -15 11 -17z m-469 -8 c0 -8 -4 -15 -9 -15 -4 0 -8 7 -8
15 0 8 4 15 8 15 5 0 9 -7 9 -15z m2089 -12 c1 -10 4 -27 8 -38 4 -11 0 -7 -9
8 -9 15 -21 25 -28 22 -7 -4 -3 1 7 9 11 9 20 16 21 16 0 0 1 -8 1 -17z m690
0 c-2 -9 -9 -19 -17 -21 -11 -3 -11 -1 1 7 11 8 12 11 2 11 -7 0 -10 5 -7 10
10 16 23 12 21 -7z m-2466 -4 c0 -10 -23 -17 -37 -11 -7 2 -11 7 -9 11 6 9 46
9 46 0z m840 -4 c14 -16 7 -45 -11 -45 -8 0 -8 4 1 15 14 16 5 35 -16 35 -20
0 -30 -30 -13 -41 10 -6 11 -9 1 -9 -7 0 -15 7 -18 15 -7 17 12 45 31 45 7 0
18 -7 25 -15z m1785 5 c-3 -5 -12 -10 -18 -10 -7 0 -6 4 3 10 19 12 23 12 15
0z m-2530 -10 c-3 -5 -11 -10 -16 -10 -6 0 -7 5 -4 10 3 6 11 10 16 10 6 0 7
-4 4 -10z m55 -30 c0 -5 -5 -10 -11 -10 -5 0 -7 5 -4 10 3 6 8 10 11 10 2 0 4
-4 4 -10z m-353 -15 c0 -8 -4 -15 -9 -15 -10 0 -11 14 -1 23 9 10 10 9 10 -8z
m1168 5 c11 -5 14 -9 7 -9 -7 -1 -17 -11 -23 -23 -9 -21 -9 -21 -4 4 3 16 0
28 -8 31 -6 3 -7 5 -2 6 6 0 19 -4 30 -9z m700 -20 c0 -19 -6 -26 -24 -28 -29
-4 -43 15 -30 41 15 28 54 19 54 -13z m694 -3 c-12 -12 -49 -21 -49 -11 0 5
39 22 53 23 4 1 2 -5 -4 -12z m-2099 -11 c0 -2 -7 -7 -16 -10 -8 -3 -12 -2 -9
4 6 10 25 14 25 6z m855 -26 c0 -30 -35 -40 -55 -15 -10 12 -10 18 0 30 20 25
55 15 55 -15z m400 0 c0 -31 -33 -40 -52 -14 -16 22 1 46 31 42 15 -2 21 -10
21 -28z m-1635 16 c0 -3 -4 -8 -10 -11 -5 -3 -10 -1 -10 4 0 6 5 11 10 11 6 0
10 -2 10 -4z m402 -45 c-5 -13 -6 -13 -10 0 -3 7 -10 20 -16 28 -9 12 -8 12
11 1 13 -8 19 -20 15 -29z m1085 12 c-2 -21 -8 -29 -25 -31 -19 -3 -22 1 -22
27 0 26 4 31 24 31 21 0 24 -4 23 -27z m1073 17 c0 -5 -2 -10 -4 -10 -3 0 -8
5 -11 10 -3 6 -1 10 4 10 6 0 11 -4 11 -10z m-2615 -10 c-3 -5 -1 -10 4 -10
16 0 13 -17 -4 -24 -11 -4 -15 1 -15 19 0 14 5 25 11 25 5 0 7 -4 4 -10z m258
-16 c-8 -20 -22 -17 -20 5 0 10 7 17 13 14 7 -3 10 -11 7 -19z m2247 16 c13
-9 13 -10 0 -10 -8 0 -22 5 -30 10 -13 9 -13 10 0 10 8 0 22 -5 30 -10z m240
6 c0 -3 -4 -8 -10 -11 -5 -3 -10 -1 -10 4 0 6 5 11 10 11 6 0 10 -2 10 -4z
m-2690 -16 c0 -5 -2 -10 -4 -10 -3 0 -8 5 -11 10 -3 6 -1 10 4 10 6 0 11 -4
11 -10z m320 2 c0 -5 -7 -9 -15 -9 -8 0 -12 4 -9 9 3 4 9 8 15 8 5 0 9 -4 9
-8z m2104 -10 c2 -4 -4 -8 -14 -8 -10 0 -16 4 -14 8 3 4 9 8 14 8 5 0 11 -4
14 -8z m-110 -57 c-4 -8 -11 -15 -16 -15 -6 0 -5 6 2 15 7 8 14 15 16 15 2 0
1 -7 -2 -15z m111 5 c3 -5 1 -10 -4 -10 -6 0 -11 5 -11 10 0 6 2 10 4 10 3 0
8 -4 11 -10z m-2315 -36 c0 -2 -7 -4 -15 -4 -8 0 -15 4 -15 10 0 5 7 7 15 4 8
-4 15 -8 15 -10z m121 -7 c-10 -9 -11 -8 -5 6 3 10 9 15 12 12 3 -3 0 -11 -7
-18z m2059 -9 c-1 -21 -2 -21 -11 -5 -6 9 -15 14 -21 11 -7 -4 -8 -2 -4 4 12
21 36 13 36 -10z m484 14 c3 -5 -1 -9 -9 -9 -8 0 -12 4 -9 9 3 4 7 8 9 8 2 0
6 -4 9 -8z m-540 -17 c-4 -8 -14 -15 -23 -15 -14 1 -13 3 3 15 25 19 27 19 20
0z m279 1 c4 -10 1 -13 -9 -9 -15 6 -19 23 -5 23 5 0 11 -7 14 -14z m-2496 -2
c-3 -3 -12 -4 -19 -1 -8 3 -5 6 6 6 11 1 17 -2 13 -5z m2199 -49 c-3 -20 -16
-31 -16 -13 0 13 8 28 16 28 1 0 1 -7 0 -15z m49 -5 c3 -6 -1 -7 -9 -4 -18 7
-21 14 -7 14 6 0 13 -4 16 -10z m215 -10 c0 -5 -5 -10 -11 -10 -5 0 -7 5 -4
10 3 6 8 10 11 10 2 0 4 -4 4 -10z m-337 -20 c3 -12 0 -20 -7 -20 -6 0 -12 9
-13 20 -1 11 2 20 6 20 5 0 11 -9 14 -20z m-1686 -12 c-3 -8 -6 -5 -6 6 -1 11
2 17 5 13 3 -3 4 -12 1 -19z m1608 -7 c-3 -5 -1 -12 5 -16 5 -3 10 -11 10 -16
0 -6 -7 -3 -16 5 -13 14 -12 36 2 36 3 0 3 -4 -1 -9z m-1874 -24 c-1 -12 -15
-9 -19 4 -3 6 1 10 8 8 6 -3 11 -8 11 -12z m1969 9 c0 -11 -19 -15 -25 -6 -3
5 1 10 9 10 9 0 16 -2 16 -4z m-1870 -16 c0 -5 -7 -10 -15 -10 -8 0 -15 5 -15
10 0 6 7 10 15 10 8 0 15 -4 15 -10z m1720 0 c3 -1 13 -2 23 -1 9 1 17 -3 17
-9 0 -6 -4 -9 -9 -6 -11 7 -71 -22 -71 -35 0 -5 -8 -9 -17 -9 -14 0 -11 6 12
25 17 13 24 24 18 25 -7 0 -13 4 -13 9 0 8 21 8 40 1z m-1078 -32 c-7 -7 -12
-8 -12 -2 0 14 12 26 19 19 2 -3 -1 -11 -7 -17z m-662 -2 c0 -3 -4 -8 -10 -11
-5 -3 -10 -1 -10 4 0 6 5 11 10 11 6 0 10 -2 10 -4z m765 -14 c-3 -3 -11 0
-18 7 -9 10 -8 11 6 5 10 -3 15 -9 12 -12z m865 12 c0 -8 -19 -13 -24 -6 -3 5
1 9 9 9 8 0 15 -2 15 -3z m-153 -32 c17 -11 0 -34 -20 -26 -9 3 -17 12 -17 20
0 15 18 18 37 6z m1183 -7 c0 -8 -9 -15 -20 -15 -17 0 -19 2 -8 15 17 19 28
19 28 0z m-1740 -4 c0 -6 -4 -12 -8 -15 -5 -3 -9 1 -9 9 0 8 4 15 9 15 4 0 8
-4 8 -9z m-80 -5 c0 -3 -4 -8 -10 -11 -5 -3 -10 -1 -10 4 0 6 5 11 10 11 6 0
10 -2 10 -4z m45 -6 c3 -6 -1 -7 -9 -4 -18 7 -21 14 -7 14 6 0 13 -4 16 -10z
m522 -19 c0 -11 -5 -17 -9 -15 -11 7 -10 34 1 34 6 0 9 -9 8 -19z m-627 -1
c12 -8 11 -10 -7 -10 -12 0 -25 5 -28 10 -8 13 15 13 35 0z m675 0 c3 -5 1
-10 -4 -10 -6 0 -11 5 -11 10 0 6 2 10 4 10 3 0 8 -4 11 -10z m85 -8 c-8 -3
-20 -12 -27 -21 -11 -14 -12 -14 -13 2 0 9 5 17 11 17 5 0 8 4 5 9 -4 5 4 7
16 3 16 -4 18 -7 8 -10z m33 3 c-3 -9 -8 -14 -10 -11 -3 3 -2 9 2 15 9 16 15
13 8 -4z m-466 -27 c-3 -8 -6 -5 -6 6 -1 11 2 17 5 13 3 -3 4 -12 1 -19z m643
7 c-7 -9 -15 -13 -19 -10 -3 3 1 10 9 15 21 14 24 12 10 -5z m-1455 -35 c-8
-13 -45 -13 -45 -1 0 5 7 17 17 26 15 15 17 15 25 1 5 -9 6 -21 3 -26z m445
30 c0 -5 -4 -10 -10 -10 -5 0 -10 5 -10 10 0 6 5 10 10 10 6 0 10 -4 10 -10z
m110 -1 c0 -5 -4 -8 -9 -4 -5 3 -12 1 -16 -5 -4 -6 -11 -7 -17 -4 -6 4 -5 10
3 15 19 12 39 11 39 -2z m605 -7 c-3 -3 -11 0 -18 7 -9 10 -8 11 6 5 10 -3 15
-9 12 -12z m-765 -2 c0 -5 -2 -10 -4 -10 -3 0 -8 5 -11 10 -3 6 -1 10 4 10 6
0 11 -4 11 -10z m484 -5 c-4 -8 -10 -12 -15 -9 -14 8 -10 24 6 24 9 0 12 -6 9
-15z m-1134 -16 c0 -5 -4 -9 -10 -9 -5 0 -10 7 -10 16 0 8 5 12 10 9 6 -3 10
-10 10 -16z m103 7 c4 -10 1 -13 -8 -9 -8 3 -12 9 -9 14 7 12 11 11 17 -5z
m947 0 c0 -9 -7 -12 -21 -9 -16 4 -17 8 -7 14 19 13 28 11 28 -5z m360 -6 c0
-5 -5 -10 -11 -10 -5 0 -7 5 -4 10 3 6 8 10 11 10 2 0 4 -4 4 -10z m-738 -22
c-7 -7 -12 -8 -12 -2 0 14 12 26 19 19 2 -3 -1 -11 -7 -17z m-482 8 c0 -11
-19 -15 -25 -6 -3 5 1 10 9 10 9 0 16 -2 16 -4z m610 -11 c0 -8 -2 -15 -4 -15
-2 0 -6 7 -10 15 -3 8 -1 15 4 15 6 0 10 -7 10 -15z m1028 -10 c-3 -3 -9 2
-12 12 -6 14 -5 15 5 6 7 -7 10 -15 7 -18z m-718 11 c0 -3 -4 -8 -10 -11 -5
-3 -10 -1 -10 4 0 6 5 11 10 11 6 0 10 -2 10 -4z m-235 -26 c3 -5 1 -10 -4
-10 -6 0 -11 5 -11 10 0 6 2 10 4 10 3 0 8 -4 11 -10z m-695 -10 c0 -5 -7 -7
-15 -4 -8 4 -15 8 -15 10 0 2 7 4 15 4 8 0 15 -4 15 -10z m600 6 c0 -9 -30
-14 -35 -6 -4 6 3 10 14 10 12 0 21 -2 21 -4z m-540 -26 c0 -5 -2 -10 -4 -10
-3 0 -8 5 -11 10 -3 6 -1 10 4 10 6 0 11 -4 11 -10z m1105 0 c3 -5 1 -10 -4
-10 -6 0 -11 5 -11 10 0 6 2 10 4 10 3 0 8 -4 11 -10z m35 0 c0 -5 -4 -10 -10
-10 -5 0 -10 5 -10 10 0 6 5 10 10 10 6 0 10 -4 10 -10z m-603 -20 c-1 -11 -7
-20 -14 -20 -15 0 -15 2 -7 24 9 23 23 20 21 -4z m-567 -10 c0 -5 -2 -10 -4
-10 -3 0 -8 5 -11 10 -3 6 -1 10 4 10 6 0 11 -4 11 -10z m290 6 c0 -3 -4 -8
-10 -11 -5 -3 -10 -1 -10 4 0 6 5 11 10 11 6 0 10 -2 10 -4z m1070 -6 c0 -5
-5 -10 -11 -10 -5 0 -7 5 -4 10 3 6 8 10 11 10 2 0 4 -4 4 -10z m520 -6 c0
-17 -22 -14 -28 4 -2 7 3 12 12 12 9 0 16 -7 16 -16z m-960 -4 c0 -5 -4 -10
-10 -10 -5 0 -10 5 -10 10 0 6 5 10 10 10 6 0 10 -4 10 -10z m380 -10 c0 -5
-5 -10 -11 -10 -5 0 -7 5 -4 10 3 6 8 10 11 10 2 0 4 -4 4 -10z m90 -12 c0
-18 -2 -20 -9 -8 -6 8 -7 18 -5 22 9 14 14 9 14 -14z m360 12 c0 -5 -4 -10
-10 -10 -5 0 -10 5 -10 10 0 6 5 10 10 10 6 0 10 -4 10 -10z m-1070 -10 c0 -5
-5 -10 -11 -10 -5 0 -7 5 -4 10 3 6 8 10 11 10 2 0 4 -4 4 -10z m-215 -58 c-8
-8 -25 10 -19 20 4 6 9 5 15 -3 4 -7 6 -15 4 -17z m1055 18 c0 -5 -2 -10 -4
-10 -3 0 -8 5 -11 10 -3 6 -1 10 4 10 6 0 11 -4 11 -10z m-606 -45 c-4 -8 -8
-15 -10 -15 -2 0 -4 7 -4 15 0 8 4 15 10 15 5 0 7 -7 4 -15z m16 -29 c0 -3 -4
-8 -10 -11 -5 -3 -10 -1 -10 4 0 6 5 11 10 11 6 0 10 -2 10 -4z m250 -6 c0 -5
-5 -10 -11 -10 -5 0 -7 5 -4 10 3 6 8 10 11 10 2 0 4 -4 4 -10z m90 0 c0 -5
-5 -10 -11 -10 -5 0 -7 5 -4 10 3 6 8 10 11 10 2 0 4 -4 4 -10z m-500 -32 c0
-18 -2 -20 -9 -8 -6 8 -7 18 -5 22 9 14 14 9 14 -14z m460 13 c0 -6 -4 -12 -8
-15 -5 -3 -9 1 -9 9 0 8 4 15 9 15 4 0 8 -4 8 -9z m210 -1 c0 -5 -2 -10 -4
-10 -3 0 -8 5 -11 10 -3 6 -1 10 4 10 6 0 11 -4 11 -10z m-454 -15 c-3 -23
-12 -26 -13 -5 -1 11 2 20 7 20 4 0 7 -7 6 -15z m-722 -36 c-3 -5 -10 -7 -15
-3 -5 3 -7 10 -3 15 3 5 10 7 15 3 5 -3 7 -10 3 -15z m816 17 c0 -2 -7 -7 -16
-10 -8 -3 -12 -2 -9 4 6 10 25 14 25 6z m180 -26 c0 -5 -4 -10 -10 -10 -5 0
-10 5 -10 10 0 6 5 10 10 10 6 0 10 -4 10 -10z m-430 -70 c0 -5 -5 -10 -11
-10 -5 0 -7 5 -4 10 3 6 8 10 11 10 2 0 4 -4 4 -10z m360 -114 c0 -3 -4 -8
-10 -11 -5 -3 -10 -1 -10 4 0 6 5 11 10 11 6 0 10 -2 10 -4z"/>
<path d="M1901 3591 c-8 -6 -9 -11 -3 -15 6 -3 14 -1 17 5 9 14 2 20 -14 10z"/>
<path d="M1290 2812 c-48 -24 -94 -97 -129 -205 -31 -97 -54 -207 -46 -215 13
-13 82 0 120 23 91 53 155 164 163 280 4 72 4 75 -26 104 -36 36 -36 36 -82
13z"/>
<path d="M2605 2811 c-43 -26 -60 -48 -95 -122 -29 -62 -80 -241 -80 -279 0
-60 141 -7 205 76 93 121 111 293 36 334 -26 14 -31 13 -66 -9z"/>
<path d="M1595 2497 c-10 -15 -16 -30 -13 -32 8 -9 40 33 36 47 -3 8 -11 2
-23 -15z"/>
<path d="M1580 2435 c-7 -9 -11 -18 -8 -20 3 -3 11 1 18 10 7 9 11 18 8 20 -3
3 -11 -1 -18 -10z"/>
<path d="M1723 2416 c-35 -44 -43 -90 -14 -71 17 10 43 65 39 83 -2 13 -8 11
-25 -12z"/>
<path d="M2975 2560 c-17 -34 -22 -97 -4 -68 19 33 38 98 29 98 -5 0 -16 -13
-25 -30z"/>
<path d="M3877 2405 c-30 -44 -34 -65 -12 -65 19 0 47 55 43 83 -3 20 -6 17
-31 -18z"/>
<path d="M1460 2504 c-13 -37 -6 -59 10 -34 10 15 14 70 6 70 -3 0 -10 -16
-16 -36z"/>
<path d="M2870 2516 c-13 -34 -13 -56 0 -56 10 0 25 68 16 77 -3 3 -10 -6 -16
-21z"/>
<path d="M3618 2527 c-12 -29 -10 -73 3 -60 6 6 9 26 7 44 -2 26 -5 30 -10 16z"/>
<path d="M1770 1600 c0 -5 7 -10 16 -10 8 0 12 5 9 10 -3 6 -10 10 -16 10 -5
0 -9 -4 -9 -10z"/>
<path d="M2827 1386 c-7 -18 1 -26 25 -26 13 0 18 6 16 17 -4 22 -34 29 -41 9z"/>
<path d="M2275 1350 c-9 -15 4 -30 26 -30 12 0 19 7 19 20 0 21 -33 29 -45 10z"/>
<path d="M2677 1354 c-11 -11 5 -34 24 -34 12 0 19 7 19 20 0 19 -28 28 -43
14z"/>
<path d="M2548 1333 c7 -3 16 -2 19 1 4 3 -2 6 -13 5 -11 0 -14 -3 -6 -6z"/>
<path d="M2540 1310 c0 -5 7 -10 15 -10 8 0 15 5 15 10 0 6 -7 10 -15 10 -8 0
-15 -4 -15 -10z"/>
</g>
</svg>
